<svg xmlns="http://www.w3.org/2000/svg" width="960" height="540" viewBox="0 0 960 540">
  <defs>
    <linearGradient id="g" x1="0" x2="1" y1="0" y2="1">
      <stop offset="0%" stop-color="#10b981"/>
      <stop offset="50%" stop-color="#14b8a6"/>
      <stop offset="100%" stop-color="#34d399"/>
    </linearGradient>
  </defs>
  <rect width="960" height="540" fill="#ffffff"/>
  <rect x="40" y="40" width="880" height="460" rx="16" fill="#f8fafc" stroke="#e5e7eb"/>
  <g transform="translate(80,80)">
    <rect width="800" height="360" fill="#ffffff" stroke="#e5e7eb"/>
    <g stroke="#e5e7eb" stroke-width="1">
      <line x1="0" y1="60" x2="800" y2="60" />
      <line x1="0" y1="120" x2="800" y2="120" />
      <line x1="0" y1="180" x2="800" y2="180" />
      <line x1="0" y1="240" x2="800" y2="240" />
      <line x1="0" y1="300" x2="800" y2="300" />
    </g>
    <path d="M0,280 C120,260 160,140 240,160 C320,180 360,120 440,140 C520,160 560,80 640,120 C720,160 760,140 800,180" fill="none" stroke="url(#g)" stroke-width="4"/>
    <circle cx="240" cy="160" r="5" fill="#10b981"/>
    <circle cx="440" cy="140" r="5" fill="#10b981"/>
    <circle cx="640" cy="120" r="5" fill="#10b981"/>
  </g>
  <text x="60" y="520" font-family="Inter, Arial, sans-serif" font-size="14" fill="#64748b">Preview — Time series energy use</text>
</svg>

